PathFileType	4	(X/Y/Z)	C:/Users/opensim2020/Desktop/walking_exp_matlab/subject02_walking11_straight_03.trc																																																																																																																												
DataRate	CameraRate	NumFrames	NumMarkers	Units	OrigDataRate	OrigDataStartFrame	OrigNumFrames																																																																																																																								
100	100	8	42	mm	100	2473	250																																																																																																																								
Frame#	Time	LFHD			RFHD			LBHD			RBHD			C7			T10			CLAV			STRN			RBAK			LSHO			LUPA			LELB			LFRM			LWRA			LWRB			LFIN			RSHO			RUPA			RELB			RFRM			RWRA			RWRB			RFIN			LASI			RASI			LPSI			RPSI			LTHI			LKNE			LTIB			LANK			LHEE			LTOE			RTHI			RKNE			RTIB			RANK			RHEE			RTOE			*39			*40			*41		
		X1	Y1	Z1	X2	Y2	Z2	X3	Y3	Z3	X4	Y4	Z4	X5	Y5	Z5	X6	Y6	Z6	X7	Y7	Z7	X8	Y8	Z8	X9	Y9	Z9	X10	Y10	Z10	X11	Y11	Z11	X12	Y12	Z12	X13	Y13	Z13	X14	Y14	Z14	X15	Y15	Z15	X16	Y16	Z16	X17	Y17	Z17	X18	Y18	Z18	X19	Y19	Z19	X20	Y20	Z20	X21	Y21	Z21	X22	Y22	Z22	X23	Y23	Z23	X24	Y24	Z24	X25	Y25	Z25	X26	Y26	Z26	X27	Y27	Z27	X28	Y28	Z28	X29	Y29	Z29	X30	Y30	Z30	X31	Y31	Z31	X32	Y32	Z32	X33	Y33	Z33	X34	Y34	Z34	X35	Y35	Z35	X36	Y36	Z36	X37	Y37	Z37	X38	Y38	Z38	X39	Y39	Z39	X40	Y40	Z40	X41	Y41	Z41	X42	Y42	Z42
																																																																																																																															
94	0.93	-202.74634	1752.5094	1371.34424	-200.36653	1737.13049	1514.99072	-308.20908	1645.38806	1363.64661	-318.10519	1625.74878	1505.37573	-341.11945	1520.33142	1442.25183	-394.19708	1245.96802	1445.82849	-202.72649	1455.32214	1423.5564	-149.16087	1282.22754	1434.28442	-396.38605	1349.53699	1510.77917	-282.82742	1493.23193	1258.50024	-314.98431	1294.86914	1175.31982	-328.30716	1155.29199	1162.08105	-322.96155	1024.17139	1143.55823	-264.24548	897.85364	1158.03711	-315.95184	901.96698	1134.55908	-298.1582	838.97083	1123.75244	-250.11206	1490.82312	1624.03894	-254.7753	1295.79346	1706.09619	-217.84822	1152.28052	1720.59412	-161.12981	1045.39087	1734.67139	-84.57958	934.53815	1706.46448	-125.94976	920.1167	1743.56335	-75.60946	866.61053	1738.27856	-147.25461	994.01819	1307.55969	-163.49388	966.42523	1563.45166	-363.32364	1030.9054	1373.96509	-375.27371	1022.44427	1487.82532	-187.67346	683.98584	1246.3031	-205.34653	479.76035	1277.73169	-249.64824	288.62164	1281.78674	-232.94102	67.46433	1322.75647	-265.60483	39.52147	1375.58289	-76.50547	33.05021	1304.83215	-239.99498	665.34033	1642.97583	-230.47923	467.32568	1641.36621	-375.67084	356.74542	1639.62903	-510.90408	220.48563	1604.20105	-558.18243	194.98164	1538.69287	-456.05121	74.79376	1649.37231	-319.38074	1789.92151	1458.91016	2845.15161	1034.31921	-3360.2583	NaN	NaN	NaN
95	0.94	-194.6404	1753.1958	1369.87769	-192.41104	1737.87744	1513.65955	-300.8187	1646.28369	1361.72876	-310.12259	1626.48364	1503.9071	-332.98755	1521.30798	1440.31787	-386.79715	1247.13367	1443.0686	-194.74197	1455.8335	1422.36768	-141.7287	1282.57458	1433.20093	-389.24353	1350.91284	1508.56641	-273.2514	1494.36279	1256.85388	-304.11252	1296.18762	1172.61084	-315.17374	1156.3064	1158.93628	-308.08734	1025.10242	1139.83472	-246.50256	900.43152	1155.04321	-298.26578	903.26538	1131.47986	-278.45737	841.02802	1120.47937	-242.9747	1491.22327	1622.53748	-248.6824	1296.2998	1704.4176	-212.8642	1152.46411	1718.96411	-156.95734	1045.26367	1733.3811	-81.03394	933.88513	1705.5354	-122.59747	919.70288	1742.39465	-72.72688	865.79669	1737.44238	-140.54759	993.84802	1306.34021	-157.22339	967.84772	1562.71729	-356.64429	1031.8916	1372.35754	-368.66907	1023.44977	1486.00513	-183.85922	683.75293	1245.63196	-203.77789	479.77838	1277.35767	-249.66475	288.80777	1282.13623	-232.86478	67.47237	1322.99231	-265.65247	39.54991	1375.71289	-76.49635	33.02298	1304.6759	-227.66122	666.66058	1642.31409	-215.00169	469.09888	1639.72803	-359.20285	356.85104	1636.23889	-492.07471	218.50107	1600.07288	-538.25421	190.78247	1534.36316	-434.54315	75.43973	1648.70715	-311.29443	1790.62769	1457.37317	2845.84399	1034.38159	-3357.39429	NaN	NaN	NaN
96	0.95	-186.43571	1753.8739	1368.677	-184.40828	1738.51733	1512.36853	-292.62854	1646.98218	1360.38464	-302.28943	1627.06433	1502.17981	-324.8353	1522.15295	1438.44446	-379.46237	1248.24255	1440.46216	-186.7711	1456.22131	1421.24402	-134.40883	1282.80493	1432.0824	-381.77301	1351.35229	1505.61426	-263.70303	1495.52429	1255.31042	-293.38956	1297.54211	1170.02808	-302.92471	1157.49268	1155.40393	-292.6077	1026.3916	1136.75659	-228.4418	903.34357	1152.60706	-280.27267	904.70813	1128.54932	-258.26462	843.16089	1117.63794	-235.68272	1491.69177	1621.02576	-242.73285	1296.58423	1702.80579	-208.12364	1152.32214	1717.26648	-152.81029	1044.97998	1732.13147	-77.40136	933.2691	1704.92944	-119.31973	919.30072	1741.42346	-69.51834	865.13245	1736.92334	-134.05676	993.86322	1304.8938	-150.79649	969.26801	1561.71228	-350.06073	1032.67383	1371.05664	-361.96887	1024.30396	1484.67139	-180.11192	683.35999	1245.07117	-201.96635	479.75104	1277.04956	-249.52403	289.07178	1282.50049	-232.8295	67.52519	1323.20374	-265.53378	39.62766	1375.82849	-76.47709	33.00981	1304.55554	-215.40936	667.97382	1641.7085	-200.01894	470.65097	1637.96069	-342.64203	356.40582	1632.93445	-472.71033	215.68214	1596.14172	-517.97168	185.87671	1530.4021	-411.90118	75.5522	1647.83362	-303.37756	1791.17285	1455.75647	2846.01074	1034.29199	-3357.34082	NaN	NaN	NaN
97	0.96	-178.26961	1754.38232	1367.48987	-176.40843	1739.06616	1511.27966	-284.4957	1647.41565	1358.91357	-294.35507	1627.61755	1500.82764	-316.81607	1522.9176	1436.70593	-372.15048	1249.29883	1438.0282	-178.79269	1456.54834	1420.20776	-127.07761	1282.94458	1431.01624	-374.41815	1352.47449	1503.44934	-254.27591	1496.66199	1253.93188	-282.18542	1298.92139	1167.68567	-290.34125	1158.74475	1152.08105	-277.06482	1027.67395	1133.73901	-211.13254	906.1936	1150.16858	-262.18301	906.32068	1125.60107	-238.65652	845.47687	1114.56763	-228.22995	1491.96643	1619.7677	-236.73528	1296.82312	1701.323	-203.41347	1152.43176	1715.74365	-148.61325	1044.8667	1731.36047	-73.8729	932.49695	1704.39026	-116.07629	918.82697	1740.58081	-66.69202	864.28613	1736.37634	-127.72473	994.04211	1303.51538	-144.21906	970.74304	1560.39136	-343.75858	1033.21875	1370.12537	-355.57025	1025.0918	1483.7124	-176.98778	683.09747	1245.02551	-199.97034	479.65771	1276.81079	-248.90329	289.35989	1282.70325	-232.78032	67.59291	1323.40967	-265.46835	39.70665	1376.08752	-76.44444	32.94833	1304.43188	-203.33179	669.27753	1641.14221	-185.42987	471.99634	1635.93127	-326.01962	355.46494	1629.80652	-452.78918	212.05348	1592.48291	-497.15787	179.91875	1526.34741	-388.13657	75.03151	1646.56274	-295.19745	1791.86218	1454.65698	2845.1582	1034.18933	-3360.3501	NaN	NaN	NaN
98	0.97	-169.993	1754.81213	1366.49121	-168.36792	1739.49792	1510.17163	-276.36496	1647.94592	1357.74182	-286.17093	1628.13745	1499.92297	-308.82321	1523.62341	1435.10254	-364.85757	1250.21704	1435.73816	-170.82925	1456.80408	1419.24121	-119.74335	1283.05688	1430.02747	-367.1438	1353.30945	1501.21252	-244.9218	1497.69714	1252.67834	-271.28333	1300.16028	1165.30652	-277.80972	1159.88745	1148.69995	-261.52081	1029.16382	1130.54492	-193.29938	909.18298	1148.52722	-243.95465	908.02081	1122.86401	-218.47081	847.96484	1112.0188	-221.15079	1492.10486	1618.45435	-230.90533	1296.97498	1699.98853	-198.6398	1152.5824	1714.68494	-144.93666	1044.46509	1730.32715	-70.22956	931.88611	1704.07007	-113.00213	918.31317	1739.78418	-63.63971	863.69226	1736.22021	-121.62157	994.42474	1302.04504	-137.49226	972.17535	1558.8772	-337.32758	1033.45093	1369.48962	-348.51859	1025.56421	1483.18201	-173.50299	682.78137	1244.68677	-197.65009	479.48053	1276.63647	-247.52596	289.4838	1282.53638	-232.68338	67.64022	1323.55518	-265.40793	39.91559	1376.3363	-76.43109	32.90521	1304.33826	-191.48346	670.55353	1640.5293	-170.62714	473.62442	1634.26648	-309.16592	354.11871	1626.79993	-432.42838	207.45833	1588.91565	-475.39792	173.66658	1523.39197	-363.49268	73.87103	1645.20129	-287.17148	1792.1073	1453.15503	2845.24463	1034.18958	-3360.43384	NaN	NaN	NaN
99	0.98	-161.76907	1755.10938	1365.49023	-160.37372	1739.8114	1509.23755	-268.32803	1648.22229	1356.4884	-278.33203	1628.42212	1498.50073	-300.70547	1524.1853	1433.58655	-357.5929	1251.00537	1433.74072	-162.90746	1457.01404	1418.34155	-112.52604	1283.01074	1429.01904	-359.85684	1354.03809	1499.15637	-235.71291	1498.67517	1251.52368	-260.52283	1301.60168	1162.85498	-264.99295	1161.09827	1145.47693	-246.38321	1030.45862	1127.21216	-175.18869	912.40887	1146.50085	-225.72916	909.77264	1120.38867	-198.57623	850.52051	1109.52869	-213.93857	1492.16699	1617.32739	-225.14197	1297.07092	1698.76355	-194.10457	1152.43457	1713.526	-141.03206	1043.98584	1729.47571	-66.82916	931.0191	1703.81055	-109.75507	917.80084	1739.33813	-60.50337	863.16486	1736.2865	-115.74377	994.94244	1300.58398	-130.63272	973.44183	1557.10779	-331.09451	1033.47034	1369.12622	-341.60468	1026.06152	1483.03186	-170.09161	682.57611	1244.36963	-195.06779	479.36133	1276.47253	-245.65007	289.57339	1282.19849	-232.57361	67.7351	1323.72974	-265.41348	39.88008	1376.50793	-76.39067	32.86952	1304.20203	-179.6794	671.80756	1639.63965	-156.15135	474.96945	1632.60889	-292.04102	352.32455	1624.06091	-411.19107	202.43927	1585.95593	-453.13663	166.77156	1520.48193	-338.06329	71.90688	1643.29541	-278.96106	1792.61414	1452.24109	2845.14893	1034.26025	-3360.36377	NaN	NaN	NaN
100	0.99	-153.52483	1755.30457	1364.55176	-152.36432	1740.06384	1508.33777	-260.1853	1648.53259	1355.43079	-270.1344	1628.74426	1497.76855	-292.7157	1524.7384	1432.19934	-350.32547	1251.68274	1431.91394	-155.04068	1457.13416	1417.53198	-105.23032	1282.99719	1428.10596	-352.64941	1354.73816	1497.22302	-226.61342	1499.62378	1250.49792	-249.41002	1302.87708	1160.67773	-252.16672	1162.29907	1142.36438	-230.16859	1032.02148	1124.53137	-157.54865	915.31323	1144.75305	-207.4593	911.85126	1117.56555	-178.47264	853.23114	1107.30176	-206.99696	1492.07922	1616.23254	-219.44028	1297.00598	1697.59937	-189.62564	1152.23657	1712.54114	-137.1143	1043.72339	1729.26965	-63.345	930.23468	1703.75098	-106.60289	917.16315	1738.88379	-57.46609	862.41748	1736.3833	-109.90282	995.54614	1299.18799	-123.68734	974.52435	1555.29504	-324.97812	1033.47607	1369.06946	-334.81729	1026.58142	1483.13135	-166.41136	682.25562	1244.11597	-192.36617	479.23407	1276.3219	-243.63353	289.67767	1281.8241	-232.41733	67.79843	1323.82605	-265.3974	39.95223	1376.59509	-76.37773	32.83073	1304.0929	-168.43419	672.95197	1638.85413	-141.86079	476.22122	1630.89331	-274.57288	350.13513	1621.77747	-389.19641	197.04567	1583.54871	-430.19824	159.5771	1517.94531	-311.81238	69.52239	1641.09644	-270.95166	1792.73145	1450.9469	2845.87109	1034.3064	-3357.41431	NaN	NaN	NaN
101	1	-145.29022	1755.48523	1363.8064	-144.33673	1740.20276	1507.55225	-252.10394	1648.69373	1354.43286	-262.30505	1628.86487	1496.52283	-284.5791	1525.03015	1430.82996	-343.19644	1252.29297	1430.37451	-147.18785	1457.21094	1416.8938	-97.98067	1282.84412	1427.2373	-345.47748	1355.39661	1495.38562	-217.5677	1500.35535	1249.59119	-237.69446	1303.71814	1158.8905	-239.38846	1163.42981	1139.37268	-214.74348	1033.6543	1121.64954	-139.60379	918.36908	1143.00757	-188.87498	913.88184	1115.33582	-158.44751	855.94922	1105.25171	-200.07443	1491.76282	1615.0553	-214.04669	1296.88806	1696.69995	-185.12909	1151.91064	1711.64746	-133.366	1042.93958	1728.35193	-59.97285	929.43524	1703.94263	-103.50397	916.39343	1738.56897	-54.62743	861.5791	1736.55786	-104.12424	995.92828	1297.66577	-116.59763	975.39636	1553.43042	-318.82169	1033.3927	1369.19995	-327.97668	1027.15918	1483.40857	-162.61067	681.80115	1243.96252	-189.61252	479.03506	1276.27673	-241.70012	289.79453	1281.57593	-232.2744	67.84146	1323.97668	-265.52759	39.89347	1376.3783	-76.33607	32.77055	1303.96863	-157.57739	674.1001	1638.21582	-127.62547	477.49359	1629.3894	-256.77429	347.54401	1619.90234	-366.75119	191.11957	1581.26978	-406.38342	151.61023	1515.9259	-284.68716	66.86759	1638.73682	-262.86771	1792.9054	1449.97278	2845.81543	1034.24927	-3357.44238	NaN	NaN	NaN
